<svg id="SvgjsSvg1001" width="38" height="24" xmlns="http://www.w3.org/2000/svg" version="1.1"
     xmlns:xlink="http://www.w3.org/1999/xlink" xmlns:svgjs="http://svgjs.com/svgjs">
    <defs id="SvgjsDefs1002"></defs>
    <g id="SvgjsG1008" transform="matrix(1,0,0,1,0,0)">
        <svg xmlns="http://www.w3.org/2000/svg" width="288" height="288">
            <g transform="translate(.1 .1)" fill="#fa6400" class="color000 svgShape">
                <g data-name="Group 1575" fill="#fa6400" class="color000 svgShape">
                    <g data-name="Group 1574" fill="#fa6400" class="color000 svgShape">
                        <path d="M35.457 104.286l-.987-3.949a.6.6 0 0 0 .472-.584v-.637a2.51 2.51 0 0 0-2.507-2.507h-4.5V95.3a1.235 1.235 0 0 0-1.235-1.238H3.781A1.235 1.235 0 0 0 2.547 95.3v10.825a.6.6 0 1 0 1.194 0V95.3a.04.04 0 0 1 .04-.04H26.7a.04.04 0 0 1 .04.04v10.825a.6.6 0 0 0 1.194 0v-.677h7.045a1.953 1.953 0 0 1 1.855 1.353h-1.853a.6.6 0 0 0-.6.6v1.273a1.873 1.873 0 0 0 1.87 1.87h.677v2.627h-1.557a3.78 3.78 0 0 0-7.146 0h-.287v-4.5a.6.6 0 1 0-1.194 0v4.5H14.358a3.78 3.78 0 0 0-7.146 0H3.781a.04.04 0 0 1-.04-.04v-1.313h2.587a.6.6 0 0 0 0-1.194H.6a.6.6 0 0 0 0 1.194h1.95v1.313a1.235 1.235 0 0 0 1.234 1.234h3.221v.04a3.781 3.781 0 1 0 7.561 0v-.04h13.452v.04a3.781 3.781 0 1 0 7.561 0v-.04h1.951a.6.6 0 0 0 .6-.6v-6.367a3.149 3.149 0 0 0-2.673-3.112zm-7.52-6.486h4.5a1.315 1.315 0 0 1 1.313 1.313v.04h-5.81zm0 6.447v-3.9h5.3l.975 3.9zm-17.152 12.738a2.587 2.587 0 1 1 2.587-2.587 2.59 2.59 0 0 1-2.587 2.587zm21.013 0a2.587 2.587 0 1 1 2.587-2.587 2.59 2.59 0 0 1-2.585 2.587zm5.134-7.641h-.677a.677.677 0 0 1-.677-.677v-.677h1.353v1.353z"
                              class="payment-icon color000 svgShape" data-name="Path 207"
                              transform="translate(0 -94.062)" fill="#fa6400"></path>
                    </g>
                </g>
                <g data-name="Group 1577" fill="#fa6400" class="color000 svgShape">
                    <g data-name="Group 1576" transform="translate(9.551 19.103)" fill="#fa6400"
                       class="color000 svgShape">
                        <path d="M129.5 350.6a1.234 1.234 0 1 0 1.234 1.234 1.235 1.235 0 0 0-1.234-1.234z"
                              class="payment-icon color000 svgShape" data-name="Path 208"
                              transform="translate(-128.267 -350.597)" fill="#fa6400"></path>
                    </g>
                </g>
                <g data-name="Group 1579" fill="#fa6400" class="color000 svgShape">
                    <g data-name="Group 1578" transform="translate(30.564 19.103)" fill="#fa6400"
                       class="color000 svgShape">
                        <path d="M411.689 350.6a1.234 1.234 0 1 0 1.234 1.234 1.235 1.235 0 0 0-1.234-1.234z"
                              class="payment-icon color000 svgShape" data-name="Path 209"
                              transform="translate(-410.455 -350.597)" fill="#fa6400"></path>
                    </g>
                </g>
                <g data-name="Group 1581" fill="#fa6400" class="color000 svgShape">
                    <g data-name="Group 1580" transform="translate(15.282 16.556)" fill="#fa6400"
                       class="color000 svgShape">
                        <path d="M214.738 316.393h-8.914a.6.6 0 1 0 0 1.194h8.914a.6.6 0 0 0 0-1.194z"
                              class="payment-icon color000 svgShape" data-name="Path 210"
                              transform="translate(-205.227 -316.393)" fill="#fa6400"></path>
                    </g>
                </g>
                <g data-name="Group 1583" fill="#fa6400" class="color000 svgShape">
                    <g data-name="Group 1582" transform="translate(1.273 14.009)" fill="#fa6400"
                       class="color000 svgShape">
                        <path d="M25.34 282.188H17.7a.6.6 0 0 0 0 1.194h7.64a.6.6 0 0 0 0-1.194z"
                              class="payment-icon color000 svgShape" data-name="Path 211"
                              transform="translate(-17.102 -282.188)" fill="#fa6400"></path>
                    </g>
                </g>
                <g data-name="Group 1585" fill="#fa6400" class="color000 svgShape">
                    <g data-name="Group 1584" transform="translate(10.825 5.731)" fill="#fa6400"
                       class="color000 svgShape">
                        <path d="M155.3 171.2a.6.6 0 0 0-.844 0l-5.309 5.309-2.762-2.762a.6.6 0 0 0-.844.844l3.184 3.184a.6.6 0 0 0 .844 0l5.731-5.731a.6.6 0 0 0 0-.844z"
                              class="payment-icon color000 svgShape" data-name="Path 212"
                              transform="translate(-145.37 -171.023)" fill="#fa6400"></path>
                    </g>
                </g>
            </g>
        </svg>
    </g>
</svg>